<svg xmlns="http://www.w3.org/2000/svg" viewBox="0 0 24 24" width="24" height="24" fill="yellow">
    <path d="M12 4a1.5 1.5 0 110-3 1.5 1.5 0 010 3zm0 20a1.5 1.5 0 110-3 1.5 1.5 0 010 3zm10-10a1.5 1.5 0 110-3 1.5 1.5 0 010 3zm-20 0a1.5 1.5 0 110-3 1.5 1.5 0 010 3zM4.22 5.64a1.5 1.5 0 111.42-2.58 1.5 1.5 0 01-1.42 2.58zm15.56 0a1.5 1.5 0 111.42-2.58 1.5 1.5 0 01-1.42 2.58zM4.22 18.36a1.5 1.5 0 111.42 2.58 1.5 1.5 0 01-1.42-2.58zm15.56 0a1.5 1.5 0 111.42 2.58 1.5 1.5 0 01-1.42-2.58zM12 16a4 4 0 100-8 4 4 0 000 8z"/>
</svg>